<svg width="15" height="15" viewBox="0 0 15 15" fill="none" xmlns="http://www.w3.org/2000/svg">
<path d="M13.4295 6.11192C13.4885 5.8168 13.2524 5.46265 12.9573 5.46265L9.59289 4.99044L8.05824 1.92114C7.99921 1.80309 7.94019 1.74407 7.82214 1.68504C7.52701 1.50797 7.17286 1.62602 6.99579 1.92114L5.52016 4.99044L2.15574 5.46265C1.97866 5.46265 1.86061 5.52167 1.80159 5.63972C1.56549 5.87582 1.56549 6.22997 1.80159 6.46607L4.22161 8.82707L3.63136 12.1915C3.63136 12.3095 3.63136 12.4276 3.69039 12.5456C3.86746 12.8408 4.22161 12.9588 4.51674 12.7817L7.52701 11.1881L10.5373 12.7817C10.5963 12.8408 10.7144 12.8408 10.8324 12.8408C10.8914 12.8408 10.8914 12.8408 10.9505 12.8408C11.2456 12.7817 11.4817 12.4866 11.4227 12.1325L10.8324 8.76805L13.2524 6.40705C13.3705 6.34802 13.4295 6.22997 13.4295 6.11192Z" fill="url(#paint0_linear_9686_16854)"/>
<defs>
<linearGradient id="paint0_linear_9686_16854" x1="1.62451" y1="7.2334" x2="13.4386" y2="7.2334" gradientUnits="userSpaceOnUse">
<stop stop-color="#F09819"/>
<stop offset="1" stop-color="#EDDE5D"/>
</linearGradient>
</defs>
</svg>
