<svg width="15" height="15" viewBox="0 0 15 15" fill="none" xmlns="http://www.w3.org/2000/svg">
<path d="M13.7615 6.11192C13.8206 5.8168 13.5845 5.46265 13.2893 5.46265L9.92492 4.99044L8.39027 1.92114C8.33125 1.80309 8.27222 1.74407 8.15417 1.68504C7.85905 1.50797 7.5049 1.62602 7.32782 1.92114L5.8522 4.99044L2.48777 5.46265C2.31069 5.46265 2.19264 5.52167 2.13362 5.63972C1.89752 5.87582 1.89752 6.22997 2.13362 6.46607L4.55364 8.82707L3.96339 12.1915C3.96339 12.3095 3.96339 12.4276 4.02242 12.5456C4.19949 12.8408 4.55364 12.9588 4.84877 12.7817L7.85905 11.1881L10.8693 12.7817C10.9283 12.8408 11.0464 12.8408 11.1644 12.8408C11.2235 12.8408 11.2235 12.8408 11.2825 12.8408C11.5776 12.7817 11.8137 12.4866 11.7547 12.1325L11.1644 8.76805L13.5845 6.40705C13.7025 6.34802 13.7615 6.22997 13.7615 6.11192Z" fill="url(#paint0_linear_9686_16862)"/>
<defs>
<linearGradient id="paint0_linear_9686_16862" x1="1.95654" y1="7.2334" x2="13.7707" y2="7.2334" gradientUnits="userSpaceOnUse">
<stop stop-color="#F09819"/>
<stop offset="1" stop-color="#EDDE5D"/>
</linearGradient>
</defs>
</svg>
