<svg width="15" height="15" viewBox="0 0 15 15" fill="none" xmlns="http://www.w3.org/2000/svg">
<path d="M13.0936 6.11192C13.1526 5.8168 12.9165 5.46265 12.6214 5.46265L9.25695 4.99044L7.7223 1.92114C7.66328 1.80309 7.60425 1.74407 7.4862 1.68504C7.19108 1.50797 6.83693 1.62602 6.65985 1.92114L5.18423 4.99044L1.8198 5.46265C1.64272 5.46265 1.52467 5.52167 1.46565 5.63972C1.22955 5.87582 1.22955 6.22997 1.46565 6.46607L3.88568 8.82707L3.29543 12.1915C3.29543 12.3095 3.29543 12.4276 3.35445 12.5456C3.53153 12.8408 3.88568 12.9588 4.1808 12.7817L7.19108 11.1881L10.2014 12.7817C10.2604 12.8408 10.3784 12.8408 10.4965 12.8408C10.5555 12.8408 10.5555 12.8408 10.6145 12.8408C10.9097 12.7817 11.1458 12.4866 11.0867 12.1325L10.4965 8.76805L12.9165 6.40705C13.0346 6.34802 13.0936 6.22997 13.0936 6.11192ZM9.43403 8.1778C9.31598 8.29585 9.25695 8.53195 9.25695 8.70902L9.67013 11.1881L7.42718 10.0076C7.36815 9.94855 7.2501 9.94855 7.13205 9.94855V3.51482L8.25353 5.75777C8.31255 5.93485 8.48963 6.0529 8.72573 6.0529L11.2048 6.40705L9.43403 8.1778Z" fill="#FFC043"/>
</svg>
