<svg width="15" height="15" viewBox="0 0 15 15" fill="none" xmlns="http://www.w3.org/2000/svg">
<path d="M13.5955 6.11192C13.6546 5.8168 13.4185 5.46265 13.1233 5.46265L9.75891 4.99044L8.22426 1.92114C8.16523 1.80309 8.10621 1.74407 7.98816 1.68504C7.69303 1.50797 7.33888 1.62602 7.16181 1.92114L5.68618 4.99044L2.32175 5.46265C2.14468 5.46265 2.02663 5.52167 1.9676 5.63972C1.7315 5.87582 1.7315 6.22997 1.9676 6.46607L4.38763 8.82707L3.79738 12.1915C3.79738 12.3095 3.79738 12.4276 3.8564 12.5456C4.03348 12.8408 4.38763 12.9588 4.68275 12.7817L7.69303 11.1881L10.7033 12.7817C10.7623 12.8408 10.8804 12.8408 10.9984 12.8408C11.0575 12.8408 11.0575 12.8408 11.1165 12.8408C11.4116 12.7817 11.6477 12.4866 11.5887 12.1325L10.9984 8.76805L13.4185 6.40705C13.5365 6.34802 13.5955 6.22997 13.5955 6.11192Z" fill="url(#paint0_linear_9686_16858)"/>
<defs>
<linearGradient id="paint0_linear_9686_16858" x1="1.79053" y1="7.2334" x2="13.6046" y2="7.2334" gradientUnits="userSpaceOnUse">
<stop stop-color="#F09819"/>
<stop offset="1" stop-color="#EDDE5D"/>
</linearGradient>
</defs>
</svg>
