<svg width="16" height="15" viewBox="0 0 16 15" fill="none" xmlns="http://www.w3.org/2000/svg">
<path d="M13.9276 6.11192C13.9866 5.8168 13.7505 5.46265 13.4554 5.46265L10.0909 4.99044L8.55629 1.92114C8.49726 1.80309 8.43824 1.74407 8.32019 1.68504C8.02506 1.50797 7.67091 1.62602 7.49384 1.92114L6.01821 4.99044L2.65378 5.46265C2.47671 5.46265 2.35866 5.52167 2.29963 5.63972C2.06353 5.87582 2.06353 6.22997 2.29963 6.46607L4.71966 8.82707L4.12941 12.1915C4.12941 12.3095 4.12941 12.4276 4.18843 12.5456C4.36551 12.8408 4.71966 12.9588 5.01479 12.7817L8.02506 11.1881L11.0353 12.7817C11.0944 12.8408 11.2124 12.8408 11.3305 12.8408C11.3895 12.8408 11.3895 12.8408 11.4485 12.8408C11.7436 12.7817 11.9797 12.4866 11.9207 12.1325L11.3305 8.76805L13.7505 6.40705C13.8685 6.34802 13.9276 6.22997 13.9276 6.11192Z" fill="url(#paint0_linear_9686_16866)"/>
<defs>
<linearGradient id="paint0_linear_9686_16866" x1="2.12256" y1="7.2334" x2="13.9367" y2="7.2334" gradientUnits="userSpaceOnUse">
<stop stop-color="#F09819"/>
<stop offset="1" stop-color="#EDDE5D"/>
</linearGradient>
</defs>
</svg>
